<!--?xml version="1.0" standalone="no"?-->
              <svg id="sw-js-blob-svg" viewBox="0 0 100 100" xmlns="http://www.w3.org/2000/svg" version="1.1">
                    <defs> 
                        <linearGradient id="sw-gradient" x1="0" x2="1" y1="1" y2="0">
                            <stop id="stop1" stop-color="rgba(255, 255, 255, 1)" offset="0%"></stop>
                            <stop id="stop2" stop-color="rgba(31, 187.655, 251, 1)" offset="100%"></stop>
                        </linearGradient>
                    </defs>
                <path fill="url(#sw-gradient)" d="M21.2,-22.3C29.3,-18.5,39,-13.5,42.4,-5.8C45.8,2,43,12.6,37.2,20.4C31.4,28.1,22.6,33.1,13.6,35.7C4.5,38.2,-4.8,38.4,-12.5,35.2C-20.2,32,-26.4,25.4,-30.2,17.9C-34,10.4,-35.4,1.9,-33.7,-5.6C-32,-13.2,-27.1,-19.8,-21,-24C-14.8,-28.1,-7.4,-29.7,-0.4,-29.2C6.6,-28.7,13.1,-26.1,21.2,-22.3Z" width="100%" height="100%" transform="translate(50 50)" stroke-width="0" style="transition: all 0.3s ease 0s;"></path>
              </svg>